<svg xmlns="http://www.w3.org/2000/svg" viewBox="0 0 236.82 500.62"><title>Hair</title><g id="Layer_2" data-name="Layer 2"><g id="Hair"><g id="Hair-2" data-name="Hair"><path d="M155,242.15c1.48.63,2.22,2,3.07,3.21a109.78,109.78,0,0,1,19.4,55.83c.85,11.83,2.36,23.66,2.55,35.5.49,30.4-9,56.65-33.46,76.17a34.58,34.58,0,0,1-11.13,6.19c28.83-20.16,40.25-48.93,41.15-82.88-.8,3.15-1.47,6.33-2.43,9.43s-2.13,6.19-3.37,9.22c-7.65,18.77-20.3,33.86-35.05,47.36-13.49,12.35-29,22.32-41.61,35.73-7.43,7.94-13.69,16.73-16.34,27.55-2.95,12-1.1,23,6.94,32.76.55.66,1.65,1.07,1.38,2.4-.39-.13-.86-.14-1.06-.38-11.18-13.44-23.07-26.5-25.53-44.9-1.87-13.93.62-27.22,6.24-40,6.39-14.51,15.6-27.23,25.15-39.72,14.58-19.05,22.5-40.58,22.81-64.56.19-15.29-3.11-30.11-8.76-44.37-6.39-16.14-13.15-32.19-15.85-49.47-.66-4.19-2.19-6.53-6.16-8-5.42-1.94-10.1-5.39-15-8.32-1.12-.67-2.37-2.08-3.65-1.26s-.34,2.49-.08,3.76c3.26,16,9.29,31.15,13.82,46.75,4.2,14.49,7.87,29.1,6.78,44.34-1.43,20.1-6.17,39.17-19.44,55.08a49.31,49.31,0,0,1-27.54,16.62,1.79,1.79,0,0,1-1.91-.29c-.11-.7.42-.92.9-1.1C55,358,66.36,344.54,73.21,326.75a108.78,108.78,0,0,0,5.93-22.13c1.37-8.72-1.43-16.78-4.54-24.69-5.18-13.21-13.16-24.85-21-36.53C48,235,42.3,226.64,37.41,217.78c-2.28-4.13-5.91-7.16-9.15-10.45C8.42,187.16-1.48,163.05.18,134.72c1.63-28,11.91-52,35.08-69.23a74.44,74.44,0,0,1,12.66-7.35c.16,2.11-1.34,2.5-2.32,3.17C21.55,77.87,8.28,101,4.51,129.7,2.09,148.17,4.4,166,12.77,182.75A59.16,59.16,0,0,0,19,192.83c1,1.32,1.87,3.57,4.09,2.33s4.16-2.43,3.27-5.75a84.73,84.73,0,0,1-2.65-27.23c1.66-27.83,14.08-49.06,38.5-63.08,9.44-5.42,18.51-11.5,28.38-17.68-6-1.49-11.08-.08-16.23.91a23.35,23.35,0,0,1,14.25-4c5.77.24,8.67-2.69,11.5-6.82,2.73-4,4.07-8.56,6.42-12.76,1,5.66-.79,10.75-3.45,15.56-3,5.48-3.1,5.29,2.24,8.48,4.21,2.52,8.49,5,11.56,9,1,1.25,2.36,2.86.78,4.33s-2.94-.1-4.13-1.21A89.16,89.16,0,0,0,99.42,84.52c-2-1.26-3.69-1.24-5.54.38C87.48,90.5,80,94.6,73,99.35c-16.75,11.37-25.85,27.4-29.09,47a87.53,87.53,0,0,0,2.27,37.36c.47,1.77,1,3.37,2.94,4.12,9.59,3.78,18.08,9.56,26.83,14.87a60.35,60.35,0,0,0,18.46,7.63c8.17,1.77,14.16-3.28,13.56-11.62-.23-3.18-.62-6.27.84-9.23.86-1.72-.31-2.85-1.11-4.08-1.11-1.73-3.36-2.95-1.89-5.7.63-1.17-.92-1.44-1.69-1.83-1.21-.6-2.54-1-3.73-1.63a1.31,1.31,0,0,1-.62-2c.52-.7,1.26-.39,1.84,0a10.56,10.56,0,0,0,5.26,2c1.14-.77-2.77-1.52.14-2.51a28.35,28.35,0,0,1,12.41-1.8c1.84.21,3.14.63,2.35-2.29-1.39-5.15-.13-7.34,4.73-9.82,8.31-4.23,10.78-3.35,4.18-14.94a143.85,143.85,0,0,1-7-13.41c-2.79-6.38-3.78-12.93-1.73-20a184.78,184.78,0,0,0,5.67-30.18c1-8.56.1-16.84-4.66-24.41a20.31,20.31,0,0,1,7.6,16.19,96.43,96.43,0,0,1-2.89,24.36c-1.82,7.4-.83,14.36,1.37,21.35,4,12.73,11.87,22.93,20.86,32.46,10.59,11.23,22.41,21.17,33.22,32.16,11.09,11.26,20.67,23.61,27.94,37.72,11.24,21.83,13.78,44.39,5.89,67.85-3.74,11.14-7.63,22.22-11.43,33.34a60.08,60.08,0,0,0-3.45,23.81c2.46-17.58,11.74-32.19,20.24-47.15,6.15-10.82,10.59-22.14,10.43-34.91-.15-11.89-4.35-22.43-10.33-32.4-8-13.35-17.26-25.92-25.42-39.2a126.73,126.73,0,0,1-19.31-62.3c-.64-15.83-1.5-31.65-2.32-47.48-1.16-22.54-8.79-42.49-24.63-58.75-13.38-13.73-29.48-22-49.1-21.77A62.14,62.14,0,0,0,83,5.55a3.33,3.33,0,0,1,2.67-2.31C102.67-2.69,119-.31,134,9c27.53,17,42.19,42.26,45.06,74.48,1.49,16.75,1.53,33.57,2.37,50.35,1.21,24.2,9.5,45.78,22.45,65.93,8.57,13.32,18,26,25.51,40.09,9.68,18.23,9.69,36.56,1.33,55.21-5,11.13-12,21.13-17.31,32.09s-8.8,22.49-9.38,34.58c-.3,6.15,3.24,11.74,6.13,17.17a84.51,84.51,0,0,0,14.77,19.48c-4.1-1.53-6.66-4.91-9.17-8.07a80.3,80.3,0,0,1-16.79-36c-2.89-15.79.72-30.66,6.06-45.32,2.76-7.57,5.57-15.13,8.27-22.73,7.43-20.88,5.93-41.43-2.93-61.48-7.52-17-19.09-31.06-32.45-43.83-12.83-12.25-26.46-23.71-37.49-37.77a113.36,113.36,0,0,1-9.26-13.48A117.18,117.18,0,0,1,124.48,115c-1.5,2.63-1.27,5.42-.66,8.26,1.7,7.91,6.27,14.49,9.89,21.52.44.85.93,1.67,1.36,2.52,3.76,7.6,2.86,10.19-4.74,13.75-.87.41-1.74.8-2.59,1.24-4.33,2.27-5,5-1.78,8.85a151.27,151.27,0,0,0,16.16,16.26C155.6,199.07,170.44,209.18,183,222c8.28,8.44,15.6,17.51,19.84,28.79,6.24,16.57,3.63,32.19-4.53,47.33-3.33,6.17-7.79,11.54-12.12,17-.49.61-.95,1.38-2.21,1-.32-1.61.89-2.67,1.63-3.86a123.87,123.87,0,0,0,13.77-30.54c5.4-18.67,1.26-35-11.49-49.49-8.63-9.81-18.75-17.91-28.89-26a299,299,0,0,1-25.86-22.64c-.72-.73-1.18-2.19-2.47-1.73s-.92,1.89-1.13,2.9c-1.59,7.54.49,14.66,2.92,21.64a62,62,0,0,0,7.87,15.26,7.57,7.57,0,0,1,1.74,3.65c-1.5-.62-2.16-2-3-3.25a67,67,0,0,1-10.71-24.68c-1.24,1.21-.78,2.33-.73,3.35.64,13.36,5.12,25.6,10.78,37.53C149.63,262,165.78,283,175.14,307.76c-.08-3.74-.35-7.41-.68-11.07a105.31,105.31,0,0,0-11.23-39.54C160.59,252.07,156.87,247.61,155,242.15ZM74.74,484.6C70.82,471,73.67,458.67,80.88,447c6.69-10.87,16-19.29,25.6-27.41,10.32-8.71,21.5-16.36,31.24-25.78,16.31-15.76,28.6-33.91,34.63-56.08,3.43-12.63,3-24.72-2.65-36.65-3.27-6.92-6.57-13.8-10.28-20.5-9.86-17.79-21.17-34.8-28.67-53.85-4.85-12.3-8.5-24.86-6.18-38.32.56-3.21,1.57-6.35,2.45-9.51a2.88,2.88,0,0,0-.93-3.3.92.92,0,0,0-1.42.14c-1.89,2.48-5.27,4-4.65,8.1.46,3-1,5.21-4.19,6.09-5.71,1.57-6,2-5.4,7.9.33,3.63.09,7.24-2.13,10.19a5.55,5.55,0,0,0-.55,6.39c.81,1.73,1.34,3.58,2.07,5.35,7.17,17.43,15.46,34.38,22,52.1,5.46,14.9,7.71,30.17,5.84,45.92-2.55,21.4-13.7,38.2-28.7,53-6.22,6.13-13.63,10.9-19.2,17.76a148.8,148.8,0,0,0-17.6,28C60.68,439.61,59.1,462.47,74.74,484.6Zm27.41-112.87c3.13-3.41,6.38-6.72,9.36-10.26,8.87-10.5,16-22,19.81-35.36,5.61-20,3.08-39.47-4-58.63-6.09-16.4-14.26-31.9-20.62-48.17C105,215,103.6,211.53,98,213.39c-.82.27-1.88-.17-2.82-.32-2.4-.39-3.71.24-3.16,3,.59,2.94.9,5.93,1.55,8.86,3.6,16.21,10.45,31.32,16.06,46.84,5.15,14.25,8.62,28.83,8.34,44A112.7,112.7,0,0,1,102.15,371.73ZM52.09,201.62c-2.27-2.38-2.87-5.24-4.11-7.71-2.64-5.26-11.6-6.49-15.51-2.09a3.22,3.22,0,0,0-.8,3c2.11,7.84,3.25,16.13,9.39,22.23,10.75,10.68,21.73,21.15,30,34,1.72,2.66,3.29,5.42,5.26,8.69.79-3-.28-5-.84-7-4.87-17.49-11.5-34.46-15.61-52.19-1.3-5.59-4.75-8.47-11-8.92.63,1.63,1.16,3.16,1.82,4.64S52.64,199.27,52.09,201.62Zm-7.26-15c-8.54-27-8.87-52.87,8.09-77.07-1.77.36-2.45,1.61-3.33,2.54a72.87,72.87,0,0,0-15.92,25.5c-5.85,16-6.63,32.47-3.88,49.19.25,1.5.48,2.9,2.49,1.7C36.07,186.27,40.19,186,44.83,186.66Zm-1.24,37.08c11.11,20.11,26.6,37.66,34.8,60.09C78.07,256.77,60.81,240.26,43.59,223.74Z"/><path d="M79.11,109a53.78,53.78,0,0,0,18.2,8.81c1,.28,2.07.66,3.12.95,8.45,2.33,9.85,1.37,11-7.51.14-1.13-.07-2.41,1.24-3.53,1.58,3.5.43,6.72-.2,9.74-.72,3.41-.49,5.42,3.67,5-2.8,5.44,2.66,3,4,4.61-.92,1.3-2.64,1-4,1.71,1.19,2,3.55,2.14,5.18,3.88-1.7.89-2.94-.18-4.25-.36-1.62-.22-3-2.55-5.06.28-.83,1.18-3.4-1.46-5.27-2.15-1.39-.52-2.41-3.37-4.37-.77-.06.09-.59,0-.75-.17-3.71-3.75-10.2-4-12.27-9.81-1-2.74-3.81-3.35-5.73-5C82.06,113.3,79.94,112.47,79.11,109Z"/></g></g></g></svg>