<svg xmlns="http://www.w3.org/2000/svg" xmlns:xlink="http://www.w3.org/1999/xlink" width="630" height="690" viewBox="0 0 630 690"><defs><linearGradient id="a" x1="0.5" x2="0.5" y2="1" gradientUnits="objectBoundingBox"><stop offset="0" stop-color="#ec625f"/><stop offset="1" stop-color="#f2eded"/></linearGradient><linearGradient id="c" x1="0.5" x2="0.5" y2="1" gradientUnits="objectBoundingBox"><stop offset="0" stop-color="#110101"/><stop offset="0.071" stop-color="#110101"/><stop offset="0.397" stop-color="#ec625f"/><stop offset="0.611" stop-color="#e6dbdb"/><stop offset="0.941" stop-color="#110101"/><stop offset="1" stop-color="#110101"/></linearGradient></defs><g transform="translate(267 57.999)" style="isolation:isolate"><g transform="translate(38.001 -57.999)"><path d="M212.706,333.753c2.031.868,3.046,2.757,4.213,4.424a151.737,151.737,0,0,1,26.623,76.95c1.166,16.305,3.239,32.61,3.5,48.929.672,41.9-12.351,78.08-45.917,104.985a47.4,47.4,0,0,1-15.274,8.532c39.563-27.786,55.235-67.44,56.47-114.233-1.1,4.342-2.017,8.725-3.335,13s-2.923,8.532-4.625,12.708c-10.5,25.871-27.858,46.669-48.1,65.276-18.512,17.022-39.8,30.763-57.1,49.247-10.2,10.944-18.787,23.059-22.423,37.972-4.048,16.539-1.51,31.7,9.524,45.153.755.91,2.264,1.475,1.894,3.308-.535-.179-1.18-.193-1.455-.524-15.342-18.524-31.659-36.525-35.035-61.885-2.566-19.2.851-37.517,8.563-55.132,8.769-20,21.408-37.531,34.513-54.746,20.008-26.257,30.877-55.931,31.3-88.983.261-21.074-4.268-41.5-12.021-61.155-8.769-22.246-18.046-44.367-21.751-68.184-.906-5.775-3.005-9-8.453-11.026-7.438-2.674-13.86-7.429-20.585-11.467-1.537-.923-3.252-2.867-5.009-1.737s-.467,3.432-.11,5.182c4.474,22.053,12.749,42.934,18.965,64.435,5.764,19.971,10.8,40.108,9.3,61.113-1.962,27.7-8.467,53.988-26.678,75.916a67.618,67.618,0,0,1-37.793,22.907,2.448,2.448,0,0,1-2.621-.4c-.151-.965.576-1.268,1.235-1.516,24.948-9.372,40.538-27.924,49.938-52.444a150.452,150.452,0,0,0,8.138-30.5c1.88-12.019-1.962-23.128-6.23-34.03-7.109-18.207-18.059-34.251-28.818-50.349-7.685-11.578-15.507-23.1-22.218-35.312-3.129-5.692-8.11-9.869-12.557-14.4C11.555,257.961-2.031,224.73.247,185.683c2.237-38.592,16.344-71.671,48.14-95.419A102.048,102.048,0,0,1,65.76,80.134c.22,2.908-1.839,3.446-3.184,4.369-33,22.825-51.214,54.7-56.388,94.261-3.321,25.457-.151,50.032,11.335,73.118a81.6,81.6,0,0,0,8.549,13.893c1.372,1.819,2.566,4.92,5.613,3.211s5.709-3.349,4.487-7.925a117.272,117.272,0,0,1-3.637-37.531c2.278-38.358,19.322-67.619,52.834-86.943,12.955-7.47,25.4-15.85,38.946-24.368-8.234-2.054-15.205-.11-22.272,1.254a31.941,31.941,0,0,1,19.555-5.513c7.918.331,11.9-3.708,15.781-9.4,3.746-5.513,5.585-11.8,8.81-17.587,1.372,7.8-1.084,14.817-4.734,21.446-4.117,7.553-4.254,7.291,3.074,11.688,5.777,3.473,11.651,6.891,15.864,12.4,1.372,1.723,3.239,3.942,1.07,5.968s-4.035-.138-5.668-1.668a122.385,122.385,0,0,0-19.363-14.32c-2.745-1.737-5.064-1.709-7.6.524-8.783,7.718-19.048,13.369-28.654,19.916C77.192,152.6,64.7,174.7,60.257,201.713a121.151,121.151,0,0,0,3.115,51.493c.645,2.44,1.372,4.645,4.035,5.679,13.16,5.21,24.811,13.176,36.819,20.5A82.621,82.621,0,0,0,129.559,289.9c11.212,2.44,19.432-4.521,18.608-16.016-.316-4.383-.851-8.642,1.153-12.722,1.18-2.371-.425-3.928-1.523-5.623-1.523-2.384-4.611-4.066-2.594-7.856.865-1.613-1.263-1.985-2.319-2.522-1.66-.827-3.486-1.378-5.119-2.247a1.809,1.809,0,0,1-.851-2.757c.714-.965,1.729-.538,2.525,0a14.455,14.455,0,0,0,7.218,2.757c1.564-1.061-3.8-2.1.192-3.46a38.75,38.75,0,0,1,17.03-2.481c2.525.289,4.309.868,3.225-3.156-1.908-7.1-.178-10.117,6.491-13.535,11.4-5.83,14.793-4.617,5.736-20.592a198.584,198.584,0,0,1-9.606-18.483c-3.829-8.794-5.187-17.821-2.374-27.566a255.678,255.678,0,0,0,7.781-41.6c1.372-11.8.137-23.21-6.395-33.644a28.041,28.041,0,0,1,10.429,22.315,133.459,133.459,0,0,1-3.966,33.575c-2.5,10.2-1.139,19.792,1.88,29.427,5.489,17.546,16.289,31.6,28.626,44.739,14.533,15.478,30.753,29.178,45.588,44.326,15.219,15.52,28.365,32.541,38.342,51.989,15.425,30.088,18.91,61.182,8.083,93.517-5.132,15.354-10.471,30.626-15.685,45.952a83.14,83.14,0,0,0-4.734,32.817c3.376-24.23,16.111-44.367,27.775-64.987,8.44-14.913,14.533-30.515,14.313-48.116-.206-16.388-5.97-30.915-14.176-44.657-10.978-18.4-23.686-35.725-34.884-54.029a175.212,175.212,0,0,1-26.5-85.868c-.878-21.818-2.058-43.623-3.184-65.441-1.592-31.067-12.062-58.564-33.8-80.975C188.485,14.058,166.391,2.66,139.467,2.977A84.943,84.943,0,0,0,113.9,7.649a4.576,4.576,0,0,1,3.664-3.184C140.894-3.708,163.3-.428,183.888,12.4c37.779,23.431,57.9,58.247,61.836,102.655,2.045,23.086,2.1,46.269,3.252,69.4,1.66,33.355,13.037,63.1,30.808,90.871,11.761,18.359,24.7,35.836,35.007,55.256,13.284,25.126,13.3,50.39,1.825,76.1-6.861,15.34-16.468,29.123-23.754,44.229s-12.076,31-12.872,47.661c-.412,8.476,4.446,16.181,8.412,23.665a116.435,116.435,0,0,0,20.269,26.849c-5.627-2.109-9.14-6.767-12.584-11.123a110.892,110.892,0,0,1-23.041-49.618c-3.966-21.763.988-42.258,8.316-62.464,3.788-10.434,7.644-20.854,11.349-31.329,10.2-28.779,8.138-57.1-4.021-84.737-10.32-23.431-26.2-42.81-44.531-60.411-17.607-16.884-36.311-32.679-51.448-52.058A156.269,156.269,0,0,1,180,178.764a161.857,161.857,0,0,1-9.181-20.261c-2.058,3.625-1.743,7.47-.906,11.385,2.333,10.9,8.6,19.971,13.572,29.661.6,1.172,1.276,2.3,1.866,3.473,5.16,10.475,3.925,14.045-6.5,18.952-1.194.565-2.388,1.1-3.554,1.709-5.942,3.129-6.861,6.891-2.443,12.2a208.054,208.054,0,0,0,22.176,22.411c18.5,16.085,38.864,30.019,56.1,47.689,11.363,11.633,21.408,24.134,27.226,39.681,8.563,22.838,4.981,44.367-6.217,65.235-4.57,8.5-10.69,15.906-16.632,23.431-.672.841-1.3,1.9-3.033,1.378-.439-2.219,1.221-3.68,2.237-5.32a171.09,171.09,0,0,0,18.9-42.093c7.41-25.733,1.729-48.24-15.768-68.212C246,306.56,232.111,295.4,218.2,284.245a410.865,410.865,0,0,1-35.488-31.2c-.988-1.006-1.619-3.019-3.39-2.384s-1.263,2.6-1.551,4c-2.182,10.392.672,20.206,4.007,29.826a85.591,85.591,0,0,0,10.8,21.033,10.453,10.453,0,0,1,2.388,5.031c-2.058-.855-2.964-2.757-4.117-4.479a92.552,92.552,0,0,1-14.7-34.016c-1.7,1.668-1.07,3.211-1,4.617.878,18.414,7.026,35.284,14.793,51.727,15.4,32.721,37.56,61.665,50.4,95.791-.11-5.155-.48-10.213-.933-15.258A145.63,145.63,0,0,0,224,354.428C220.377,347.426,215.272,341.279,212.706,333.753ZM102.565,667.92c-5.379-18.745-1.468-35.739,8.426-51.824,9.181-14.982,21.957-26.587,35.131-37.779,14.162-12,29.5-22.549,42.871-35.532,22.382-21.722,39.248-46.738,47.523-77.295,4.707-17.408,4.117-34.071-3.637-50.514-4.487-9.538-9.016-19.02-14.107-28.255-13.531-24.52-29.052-47.965-39.344-74.221-6.656-16.953-11.665-34.264-8.481-52.816.768-4.424,2.155-8.752,3.362-13.108a3.98,3.98,0,0,0-1.276-4.548,1.259,1.259,0,0,0-1.949.193c-2.594,3.418-7.232,5.513-6.381,11.164.631,4.135-1.372,7.181-5.75,8.394-7.836,2.164-8.234,2.757-7.41,10.889.453,5,.124,9.979-2.923,14.045a7.676,7.676,0,0,0-.755,8.807c1.112,2.384,1.839,4.934,2.841,7.374,9.839,24.024,21.216,47.386,30.191,71.809,7.493,20.537,10.58,41.583,8.014,63.291-3.5,29.5-18.8,52.651-39.385,73.05-8.536,8.449-18.7,15.023-26.348,24.478a205.226,205.226,0,0,0-24.152,38.592C83.271,605.911,81.1,637.419,102.565,667.92ZM140.18,512.352c4.3-4.7,8.755-9.262,12.845-14.141,12.172-14.472,21.957-30.322,27.185-48.736,7.7-27.566,4.227-54.4-5.489-80.809-8.357-22.6-19.569-43.968-28.3-66.392-2.333-5.94-4.254-10.723-11.939-8.159-1.125.372-2.58-.234-3.87-.441-3.294-.538-5.091.331-4.336,4.135.81,4.052,1.235,8.173,2.127,12.212,4.94,22.342,14.341,43.168,22.039,64.559,7.067,19.641,11.829,39.736,11.445,60.645a155.842,155.842,0,0,1-21.71,77.129Zm-68.7-234.461c-3.115-3.28-3.938-7.222-5.64-10.627-3.623-7.25-15.919-8.945-21.284-2.881a4.451,4.451,0,0,0-1.1,4.135c2.9,10.806,4.46,22.232,12.886,30.639,14.752,14.72,29.82,29.151,41.169,46.862,2.36,3.666,4.515,7.47,7.218,11.977,1.084-4.135-.384-6.891-1.153-9.648-6.683-24.106-15.781-47.5-21.422-71.933-1.784-7.7-6.518-11.674-15.1-12.294.865,2.247,1.592,4.355,2.5,6.4S72.238,274.652,71.483,277.891ZM61.52,257.217C49.8,220,49.348,184.346,72.622,150.992c-2.429.5-3.362,2.219-4.57,3.5a100.5,100.5,0,0,0-21.847,35.146c-8.028,22.053-9.1,44.753-5.325,67.8.343,2.067.659,4,3.417,2.343,5.2-3.046,10.855-3.418,17.222-2.508Zm-1.7,51.107c15.246,27.717,36.5,51.906,47.756,82.822-.439-37.241-24.125-60-47.756-82.766Z" transform="translate(-0.001 -0.001)" fill="url(#a)"/><path d="M79.11,109.48A73.963,73.963,0,0,0,104.14,121.6c1.375.385,2.847.908,4.291,1.307,11.621,3.2,13.547,1.884,15.128-10.328.193-1.554-.1-3.314,1.705-4.855,2.173,4.814.591,9.242-.275,13.4-.99,4.69-.674,7.454,5.047,6.876-3.851,7.482,3.658,4.126,5.5,6.34-1.265,1.788-3.631,1.375-5.5,2.352,1.637,2.751,4.882,2.943,7.124,5.336-2.338,1.224-4.043-.248-5.845-.5-2.228-.3-4.126-3.507-6.959.385-1.141,1.623-4.676-2.008-7.248-2.957-1.912-.715-3.314-4.635-6.01-1.059-.083.124-.811,0-1.031-.234-5.1-5.157-14.028-5.5-16.875-13.492-1.375-3.768-5.24-4.607-7.88-6.876C83.167,115.394,80.251,114.253,79.11,109.48Z" transform="translate(29.4 40.766)" fill="url(#a)"/></g></g><rect width="15" height="500" rx="7.5" transform="translate(341.766 0.173)" fill="url(#c)"/><rect width="15" height="500" rx="7.5" transform="translate(222.766 564.173) rotate(180)" fill="url(#c)"/><text transform="translate(0 356.881)" fill="#ec625f" font-size="200" font-family="Dancing Script" font-weight="700" letter-spacing="0.015em"><tspan x="0" y="0">C</tspan><tspan y="0" fill="#fbebeb">ha</tspan></text></svg>