<svg xmlns="http://www.w3.org/2000/svg" viewBox="0 0 482.96 621.18" fill="#F3DBDB"><g id="works-beauty"><path d="M370.46,500.74c-10.34-28.74-4.59-53.86,15.48-75.94-21.06,51.45-11.43,82.81,35.51,113.49-3.25.34-5.71-1-8.24-1.81-18.9-6-36.6-14.28-52-26.9-29.5-24.09-38.88-55.05-30.49-91.64,6.88-30,22.61-55.64,40.35-80.23,21.65-30,42.72-60.4,57.56-94.57,10.45-24,17.93-48.93,17.12-75.4-1.21-39.43-16.35-72.23-49.44-95C379.2,61,360,55.46,338.92,58.48c-4.09.59-7.93,2.11-12.11,3.8,6.51-14.1,28.07-30.82,50.93-26.37-8.37-5.1-17.57-6.82-27.68-6.33,15.19-7.64,38.95,1.13,50.52,21a58.48,58.48,0,0,0-19.21-4,51.67,51.67,0,0,0-19.19,2.92c4.79.5,9.6.84,14.36,1.53,24.77,3.6,44.5,16.8,61.25,34.27,42.52,44.34,54.08,96.89,38.63,155.67C466.11,280.21,445,313.8,420.08,345.3c-12.91,16.34-28.07,30.79-40,47.95-12.59,18.12-22.73,37.29-24.72,59.77-1.55,17.37,3.4,32.91,13.73,46.83C369.35,500.19,369.84,500.35,370.46,500.74Z"/><path d="M270.32,353c4-17.88,15.26-31.26,26.92-44.36,10.2-11.47,22.24-21.06,32.87-32.09,14.28-14.8,26.3-31.08,31.18-51.5a74.57,74.57,0,0,0-3.79-47.36c2.21,16.57-2.86,31.3-11.12,45.42,8.17-28.38,7.23-55.12-13.65-79,4.65.34,8.17,2.31,11.67,4.13,36.44,18.89,65.49,73.84,33.2,125.24-9.57,15.25-22.53,27.1-37.69,36.57-16.31,10.18-32,21.17-44.66,35.78-10.56,12.14-18.73,25.51-19.45,42.24a41.33,41.33,0,0,0,1.13,11.73c-29.36-33.2-23.9-72.69,12.11-97.75C276.31,316.75,268.38,333.16,270.32,353Z"/><path d="M419.55,205.74c.55,18.47-3.58,36-10.23,53.07-10.44,26.76-26.7,49.75-45.81,70.95-17.92,19.88-34.1,41-44.48,66-19.41,46.65-9.46,87.06,29.22,119.71a54.47,54.47,0,0,1,6,5.6,163.28,163.28,0,0,1-26-18.09c-13-10.81-24.6-23-33.36-37.55-17.71-29.47-17.32-58.9.27-88.34,10.95-18.32,26.74-32.22,41.89-46.73,18.89-18.09,37.9-36.07,53.73-57C405.94,253.19,417.09,231.32,419.55,205.74Z"/><path d="M187.18,157.65c41,37.94,92.38,23.38,114.43,0-24.55,17-50.63,19.56-78,8.16-18.55-7.72-34.41-22.24-39.73-36.23,21.76,12,45,13.42,68.49,12.05,24.12-1.4,45.42-9.69,62.2-28.19-3,17-29.38,34.84-62.65,42.82,24.56-.21,48.18-3.42,67.29-21.19-5.39,21.71-27.27,50.58-56.69,59.39-28.24,8.45-55.3,8.37-79.25-11.79,12.54,5.17,25.47,8.38,39.25,7.57C206.56,183.77,192.9,175,187.18,157.65Z"/><path d="M205,436.89c-9.66,5.89-19.72,11.39-29.32,17.68-44.28,29-82.87,63.62-109.53,110.18-11,19.18-17,34.77-20.74,56.43-6.22-26.34-13.33-51.37-11-78C40.09,478.78,67.87,424.8,111.29,378c3.47-3.73,7.3-7.11,11.16-10.52-6,7.62-12,15.21-18,22.85-21.16,27-37.85,56.37-47.05,89.62-6.29,22.75-9,45.73-3.34,69.07.5,2.07.68,4.3,2.41,6.35C95,502.1,144.84,463,205,436.89Z"/><path d="M197.07,259.38c32.5,18.17,89.82,4.8,106.35-25.54-21.74,15.15-44.74,18.85-69.74,9.23,43.78-.74,75.71-18.74,91.3-61.29.71,18.58-3,36.12-12.16,52.41s-22.53,28.1-39.07,36.62a86.45,86.45,0,0,0,25.54-10.65c-9,15-32.54,29.09-56.24,27.66C222.65,286.59,207.47,276.74,197.07,259.38Z"/><path d="M70.48,406.65c-3-24.24-4.52-47.43-2.53-70.77,1.46-17.09,5.29-33.88,6.57-51,.75-10.08,2.06-20.29-3.37-29.77a48.4,48.4,0,0,0-18.92-18.68c-11.4-6.32-23.65-10.67-35.59-15.74A38.19,38.19,0,0,1,6.8,214.9c-10-8.39-8.91-20.16,2.69-26.74C7,191,3.81,193.47,3,197.5c-1.39,6.88,1.85,13.34,8.89,17.42,5.51,3.19,11.56,5.12,17.48,7.3,12,4.43,24,9.09,35.18,15.38,19.29,10.85,39.56,11.53,60.51,6.67,3.53-.82,7.06-1.69,12-2.87-5,3.87-9.09,6.81-13,10C98.77,272,80.67,297.28,74.46,329.88c-4.14,21.69-4,43.71-4,65.69Z"/><path d="M332.32,106.25c18.79-1.64,35.28,4,49.35,16.49,21.1,18.73,29,42.8,27.74,70.36a118.7,118.7,0,0,1-7.53,35.52c-.61,1.67-.88,3.57-2.4,4.9,4.06-45.33-19.58-80.8-65.6-99,14.76-1.51,27.88,2.94,39.8,11.49s19.42,20.32,25,33.5C391,142.13,368.32,118.3,332.32,106.25Z"/><path d="M309.82,75.33c-27.75-23.17-56-43-93.27-43.44,27.64-6.21,51.68,2,73.67,18.87-2.19-3.92-5.51-6.77-8.7-9.67s-6.49-5.75-9.93-8.36C254.82,20,236.1,12.63,214.82,12.3,198,12.05,183.1,15.8,173.38,32,176,15.84,187,5.49,204.47,2.67c32.32-5.24,58.4,6.48,80,29.9C294.56,43.46,305,61.17,309.82,75.33Z"/><path d="M290.54,104a103,103,0,0,1-46.67,8.57c-16.05-.77-31.56-3.76-46.86-12.52,16.59,23.57,39.69,29.11,66.56,28.86C230.07,141.76,184.89,116,181.38,83a137.1,137.1,0,0,0,52.53,21.34A154,154,0,0,0,290.54,104Z"/><path d="M384.58,81.83c21.53,10.25,35.6,27.4,44.84,48.94,14.14,32.93,9.29,72.32-4.34,98.08a151.49,151.49,0,0,0,.06-79.1C418.16,123.21,406,99.84,384.58,81.83Z"/><path d="M243.55,414.23c-12.18-20.1-32.45-30.76-50.35-44.19-27.73-20.79-34.17-64.49-13.93-92.84a2.22,2.22,0,0,1,1.24-1.06c-2,7.09-4.12,14.06-4.94,21.34-3,26.11,3.19,48.84,24.12,66.27,12.27,10.21,25.06,19.9,34.48,33.1C238,402.22,241.69,407.67,243.55,414.23Z"/><path d="M311.67,93.89c-28.79-14.62-59.24-18.7-91.05-14.78,14.78-5.17,29.86-7.64,46.29-5.27-15.84-9-50.86-13.38-82.61-5.59C217.67,48.37,271.3,55.31,311.67,93.89Z"/><path d="M219.68,220.3c49-3.06,86.21-23.14,104.66-71.32,0,20.41-12.17,46.43-31.25,58.88C270.41,222.66,245.88,227.2,219.68,220.3Z"/><path d="M185.13,45.06c29-12.06,55.86-6.85,81.62,8.79-30.16-10.72-60.36-11.91-91.55.3,4.32-11.58,11.65-19.33,20.65-25.91-5.69,1.11-10.61,3.93-16.33,7.23,9.85-13.91,31.67-18.59,48.23-10.5C209.94,25,195.9,31.59,185.13,45.06Z"/><path d="M345.29,69c25.28,3.73,39.61,19.76,51.52,39.08-20.19-20.82-43.16-35.46-73.59-33.76,11.72-13.88,38.64-13.43,54.3-3.22C366.5,67.76,356.68,66,345.29,69Z"/><path d="M72.18,105.53c3.08.67,6.07,1.61,9.2,1.55a12.36,12.36,0,0,0,4-.91c-6.77-1.33-13.51-2.57-18.27-9.34,3.89,1.36,6.83,3.44,10.39,3.87,5.81.71,10.24-.78,13.61-6,5.79-9,10.78-9.44,18.73-2.17a23.79,23.79,0,0,1,6.8,9.33c-3.54-3.49-6.69-7.35-11-9.86C99,88.17,92,92.16,91.8,99.8c-.06,1.91,1.14,3.07,2.28,4.25A31.92,31.92,0,0,0,104.94,111c4.53,1.9,9.13,3.73,13.37,7.35-10.94-1.15-21.42,2.57-31.71-1.3,3.4-.49,6.92.25,11.82-1.37C88.13,113.76,78.91,112.64,72.18,105.53Z"/><path d="M144.42,114.22c-.8-5.81-1.62-11-3.45-16-2.74-7.46-7.89-12.14-15.71-13.79-8.14-1.71-16.33-3.19-24.69-2.89-3.43.12-4.11-1.13-3-4a21,21,0,0,1,2.13-5c1.5-2.08,2.89-5.88,6.29-1.61.49.62,1.86.54,2.83.79,4.65,1.22,9.37,2.23,14,3.68C141.75,81.39,148.76,93.78,144.42,114.22Z"/><path d="M40.27,178.83c-6.73-1.83-12.84-3.39-18.87-5.18-3.61-1.07-7.51-2.57-6-7.45,1.37-4.48,5.22-3.79,8.76-3,.78.18,1.53.67,2.56-.11-1.5-2.69-3-5.43-4.53-8.15a6.33,6.33,0,0,1-.8-5.27c.67-1.86,1.64-3.81,4-4,2.67-.23,3.14,1.81,3.69,3.84a152.38,152.38,0,0,0,4.31,14.81C35.17,169.13,37.74,173.62,40.27,178.83Z"/><path d="M152.26,38.07A114.66,114.66,0,0,0,112.45,53C99.8,60.76,92.84,73,85.88,85.37,89.13,57.57,121,35,152.26,38.07Z"/><path d="M147.06,241.59c-1.49,9.28,2.12,14,10.73,14.1,18.08.15,31.31-9.06,41.15-23.3,4.57-6.61,1.86-12-6-14.46-4.48-1.38-9.17-1.36-13.8-1.89,7.5-.56,15-1.39,22.4.8,6,1.78,7.61,5.6,5.11,11.1-6.65,14.63-31.57,30.21-47.58,29.76-4.29-.12-8.32-1-11.32-4.34S143.81,246.51,147.06,241.59Z"/><path d="M159.18,33.31c-4.9-4.55-6.72-9.19-7.44-15.19-2.75,5-2.08,9.55-1.78,14.15a12.42,12.42,0,0,1-3.23-17.65c4.36-6.06,10.82-8.88,18-11C156.35,11.92,156.09,21.78,159.18,33.31Z"/><path d="M318.53,44.27c4.3-22.5,21.66-33.58,42.38-26.95C341.54,18.18,328.31,28.51,318.53,44.27Z"/><path d="M372,105.1c24.06,5.84,44.45,36.15,43.69,64.84-1.73-7.52-3.1-13.8-5.36-19.82a90.64,90.64,0,0,0-8.93-17.83,87.72,87.72,0,0,0-12.45-14.94C384.18,112.73,378.69,109.05,372,105.1Z"/><path d="M208.6,244.89c15.8,10.12,32.93,12.88,52.08,9.46C243.54,263.8,219.81,261.91,208.6,244.89Z"/><path d="M187.61,0c-14,5.2-21.49,15.43-23,30.38C159.05,16.29,169.85,1.84,187.61,0Z"/><path d="M45.85,103.86a51.56,51.56,0,0,1-15.53.76c-4-.41-5.35,1.38-5.51,5s1.27,7.14,2.65,10.53c2.33,5.67,4.67,11.35,4.07,17.71a71.47,71.47,0,0,0-5.82-16.7,27.2,27.2,0,0,1-2.82-8.47c-.88-8.11,1.6-10.5,9.57-9.65C36.9,103.57,41.39,103.62,45.85,103.86Z"/><path d="M161.3,239.78c7.45.28,13-1.36,17.88-5.07C175.37,240.84,168.59,243,161.3,239.78Z"/><path d="M35,131.07c-1.6-2.89-3.24-5.75-4.77-8.68-.46-.88-.7-2.14.35-2.67s1.82.4,2.33,1.32A17.8,17.8,0,0,1,35,131.07Z"/></g></svg>