<svg viewBox="0 0 428.93 100.28" fill="#EC625F"><g id="cha-logo"><path id="eauty" d="M371.73,40c5.43,0,10.06,0,14.68,0,1.18,0,3-.83,3.16,1.25S388,43,386.74,43.13c-4.48.32-9,.54-13.45.87-1.57.12-3.4-.33-4.21,1.79-2.44,6.39-4.89,12.79-4.41,19.81.34,5,2.8,7,7.64,5.64,6.7-1.92,11.94-5.74,13.68-13a50.11,50.11,0,0,1,5.65-14.34c1.44-2.4,3.16-3,5.82-1.69,2.94,1.46,2.05,3.17.93,5.23a42.93,42.93,0,0,0-4.64,13.65c-.29,1.81-.51,3.84,1.39,4.94s3.63.34,5.13-.8c4.69-3.6,8.75-7.7,10-13.79.42-2,.91-3.91,2.44-5.36a4.8,4.8,0,0,1,5.57-.91c1.87.89.61,2.73.3,3.94-1.9,7.38-4,14.7-6.21,22.73,7.66-3.3,12.39-8.81,15.58-16.56,1.87,2.8.56,4.36-.17,5.83a27.65,27.65,0,0,1-12.57,12.45,14.9,14.9,0,0,0-7.37,8.19,44.52,44.52,0,0,1-8.07,13.14,21.56,21.56,0,0,1-4.08,3.62c-3.57,2.27-7.48,2.69-10.5-.59s-1.8-6.85.46-10.09a19.11,19.11,0,0,1,9.74-7.56c9-2.74,10.7-9.82,11.95-17.64-12.57,10.75-16.13,11.31-22.13,3.21-4.46,4.61-8.79,9.49-15.55,10.58-7.62,1.23-10.71-1.07-13.37-10.12-1.89,1.69-3.59,3.41-5.49,4.87-8.92,6.82-14.08,5.2-17.57-5.56-4.11,3.81-6.39,10.76-13.6,9.23-4.75-1-5.66-5.59-6.35-10.26-3.91,4.17-7.39,8.5-12.91,10.12-5.74,1.68-8.56,0-12.17-7.11-13.35,12.16-19.58,12.41-22.47.56-2.62,1.78-5.11,3.57-7.72,5.19a18.91,18.91,0,0,1-7.44,2.77C245,76.86,239.47,77,235.5,72s-3-10.38-.82-15.63c3.6-8.59,9.32-15.4,18.09-19.06,4.1-1.71,8.55-2.45,12.07,1.29,2.38,2.54,1.39,8.47-1.85,12.48-4.49,5.54-10.6,8.38-17.33,10.23-2.08.57-5.51-.22-4.94,3.93.51,3.68,2.14,6.33,6.07,6.84a14.52,14.52,0,0,0,8.72-1.53c5.58-2.9,10.24-6.72,13.15-12.47,4-7.93,9.57-14.4,17.75-18.29,4.22-2,8.62-2.71,13-.87,5.53,2.3,6.45,6.68,2.52,11.17-.28.33-.88.83-.83.92,3.47,5.27-2.23,8-3.37,12-.66,2.28-1.89,4.68.11,6.54s4.39.37,6.34-.92c5.48-3.62,8.88-8.86,11.41-14.79,1.31-3,2.7-6.07,4.19-9,1.2-2.39,3-2.79,5.39-1.46s1.24,2.91.42,4.58c-2.36,4.8-4.56,9.69-4.87,15.11-.15,2.41-.5,5.47,2.33,6.53,2.55,1,4.27-1.35,5.76-3.1,4.65-5.52,8-11.84,11-18.37,1.19-2.6,2.55-3.54,5.36-2.23,3,1.4,1.94,3.37,1.07,5.37-2,4.58-4.12,9.09-4.94,14.08-.31,1.84-.67,3.8.93,5.13,1.93,1.6,3.94.33,5.54-.7,5.11-3.31,9.45-7.29,10.73-13.71.55-2.76,1.49-5.45,2.29-8.16.6-2,2.46-4.17-1.35-5.39a1.36,1.36,0,0,1,.87-2.57c3.9.59,4.29-2.24,5.31-4.57A95,95,0,0,1,375,18.24a29.58,29.58,0,0,1,4-4.45c1.1-1,2.46-1.8,4.06-.81a3.06,3.06,0,0,1,1.11,4.36c-2.21,4.29-4.58,8.49-6.9,12.71C375.49,33.21,373.73,36.35,371.73,40ZM274.08,66.6C274,71.3,275.84,72.68,279,71a24.74,24.74,0,0,0,5.41-4.3c4.76-4.67,8.15-10.47,12.5-15.46,2.41-2.75,2.37-5.57.66-8.1-1.84-2.73-5-1.82-7.21-.47C281,48.34,276.16,57.13,274.08,66.6Zm-31.19-8.73c7.41-2,13.7-5.33,17.14-12.45.73-1.51,1.28-3.35-.18-4.62s-3-.27-4.22.45C249.18,45,245.2,50.75,242.89,57.87ZM401.1,80.92c-5.58,2.88-10.33,5.34-13,10.4-.78,1.48-1.1,3.32.44,4.52s2.86-.08,3.9-1.06C396.34,91.15,399,86.74,401.1,80.92Z"/><path id="b" d="M197,5.08c-4.37.32-7.2,2.1-10.12,3.61-1.85,1-3.41,1-4.94-.59-1.38-1.44-1.51-2.34.61-3.2,12.42-5,25.12-6.8,38-2.39,11.71,4,13.87,17.93,4.35,26-3.62,3.07-8,4.52-13.18,6.65,3.33,1.11,5.92,1.83,8.41,2.83,11.72,4.69,14.66,15.22,7.13,25.4a33.55,33.55,0,0,1-12.78,10.14c-10.31,5-21,8.23-32.7,6.94A9.23,9.23,0,0,1,175.91,78c-1.56-1.62-2.82-3.73-1.86-5.82s3-.35,4.5-.25c13.59.91,26.58-.78,38.17-8.64a21,21,0,0,0,6-5.94c4.75-7.29,2.48-14.22-5.68-17.08-7.56-2.65-15.44-2-23.25-2.13-2.47,0-2.51,1.82-2.92,3.29-2.21,8-4.27,16.07-6.53,24.07-.52,1.84-.4,4.81-3.86,3.81-2.8-.8-4.87-2.41-4.69-5.59a19.34,19.34,0,0,1,1.2-4.82C182.78,40.87,188.73,22.89,197,5.08ZM223.14,16c.12-7.8-10.85-15.19-18.07-12.2A3.78,3.78,0,0,0,203.21,6c-4.05,8.21-6.77,16.93-9.57,25.61-.61,1.9-.23,2.76,2,2.57,7.34-.65,14.51-1.87,20.78-6.08A14.29,14.29,0,0,0,223.14,16Z"/><path id="cha" d="M49.79,63.88c-4.27,5.49-8.42,9.74-13.63,12.88C18.68,87.27.18,77.94,0,57.62-.19,35.34,9.62,17.52,28.06,4.77A23.68,23.68,0,0,1,43.62.31c6.45.51,9.3,3.69,9,10.13a30.47,30.47,0,0,1-6.5,17,12.89,12.89,0,0,1-3.81,3.13c-1.85,1.07-3.54.32-4.91-1.16-1.59-1.71.12-2.71,1-3.78,3.26-4.24,6.53-8.47,8.2-13.63C48.39,6.18,46,3.69,40,5a18.74,18.74,0,0,0-9.4,5.43C17.65,23.69,9.76,39.31,9.68,58.11,9.62,74,21.35,80.77,35,72.84c8.6-5,14.83-12,17.46-22.07A137,137,0,0,1,70.93,9.46a26.3,26.3,0,0,1,6.19-7.14C80.68-.26,83.49.75,84.49,5A15.55,15.55,0,0,1,84,13.42C80,25.56,73.57,36,63.63,44.26,58,49,58.87,56,58.73,62.59c2-3.92,3.83-7.92,6-11.74a18.59,18.59,0,0,1,8-8c7.89-3.8,14.29.21,14.28,8.92,0,4-1.76,7.4-3.07,11-.84,2.29-2.38,5.09,0,7,2.59,2,5.1-.1,7.16-1.73a35.37,35.37,0,0,0,9.1-11.13c4.05-7.49,9.59-13.6,17.45-17.22,4.39-2,9-2.66,13.51-.39,5,2.5,5.63,6.76,1.93,10.76-.31.33-1,.78-1,.81,3.47,5.43-2.4,8.29-3.42,12.46-.12.48-.35.93-.51,1.4-.65,1.87-.67,3.76.93,5s3.15.53,4.69-.28c4.76-2.5,7.79-6.63,10.64-11,.66-1,.79-3.58,2.86-2.34,1.37.82.1,2.4-.48,3.55a33.77,33.77,0,0,1-9.65,12c-7.83,5.91-13.65,4.59-17.9-4C105,80,99.82,80,96.51,67.51c-3.41,3-6.55,6.22-11.31,6.81-7.23.9-10.89-2.82-9.49-9.93.61-3.1,1.67-6.11,2.26-9.21.41-2.1.78-4.61-1.65-5.76-2.59-1.22-4.86-.08-6.7,1.92-2.87,3.14-4.33,7.06-6,10.86C62,65.83,60.24,69.44,58.44,73c-.87,1.71-2.34,3-4.36,2.8-2.2-.24-2.78-2.26-3.17-4C50.42,69.52,50.24,67.21,49.79,63.88Zm79.82-17.14c-.07-4.84-3.65-6.9-8.31-4-9.27,5.69-14.59,14.3-16.16,25-.52,3.57,1.7,4.86,5,3.23a18.93,18.93,0,0,0,4-2.94c5.83-5.26,9.62-12.23,14.9-18C129.86,49.11,129.53,47.87,129.61,46.74ZM79.33,11.43A66.75,66.75,0,0,0,64.89,37.22C72,29.89,77.11,21.46,79.33,11.43Z"/></g></svg>